<?xml version="1.0" encoding="UTF-8"?>
<svg width="360px" height="512px" viewBox="0 0 360 512" version="1.1" xmlns="http://www.w3.org/2000/svg" xmlns:xlink="http://www.w3.org/1999/xlink">
    <!-- Generator: Sketch 52.3 (67297) - http://www.bohemiancoding.com/sketch -->
    <title>Untitled</title>
    <desc>Created with Sketch.</desc>
    <g id="Page-1" stroke="none" stroke-width="1" fill="none" fill-rule="evenodd" opacity="0.3">
        <g id="pin" fill="#000000" fill-rule="nonzero">
            <path d="M180,0 C80.748,0 0,80.748 0,180 C0,213.534 9.289,246.26 26.869,274.652 L169.754,504.909 C172.491,509.32 177.313,512 182.499,512 C182.539,512 182.578,512 182.618,512 C187.849,511.959 192.681,509.196 195.368,504.708 L334.611,272.22 C351.221,244.428 360,212.539 360,180 C360,80.748 279.252,0 180,0 Z M308.866,256.818 L182.272,468.186 L52.367,258.846 C37.734,235.214 29.8,207.95 29.8,180 C29.8,97.29 97.29,29.8 180,29.8 C262.71,29.8 330.1,97.29 330.1,180 C330.1,207.121 322.689,233.688 308.866,256.818 Z" id="Shape"></path>
            <path d="M180,90 C130.374,90 90,130.374 90,180 C90,229.309 129.717,270 180,270 C230.903,270 270,228.767 270,180 C270,130.374 229.626,90 180,90 Z M180,240.2 C146.743,240.2 119.8,213.167 119.8,180 C119.8,146.916 146.916,119.8 180,119.8 C213.084,119.8 240.1,146.916 240.1,180 C240.1,212.683 213.784,240.2 180,240.2 Z" id="Shape"></path>
        </g>
    </g>
</svg>